<svg width="49" height="49" viewBox="0 0 49 49" fill="none" xmlns="http://www.w3.org/2000/svg">
<g clip-path="url(#clip0_5_25)">
<rect width="49" height="49" rx="24.5" fill="black"/>
<path d="M25.6787 0.503906C27.6924 0.542226 29.8368 0.945411 32.1436 1.7334L32.6709 1.91895C42.1663 5.37155 48.4658 14.3839 48.5 24.5557C48.5115 27.9969 47.5818 31.8961 46.0088 35.0996C43.5986 39.9474 39.6519 43.8364 34.7383 46.1885C34.2898 46.4033 33.8112 46.6121 33.3281 46.8105C35.3982 45.367 37.0424 43.4978 38.1348 41.3096V41.3086C38.7077 40.157 39.0796 39.2366 39.3164 38.2256C39.5523 37.2184 39.6491 36.1431 39.6963 34.6895V34.6875C39.7194 33.8619 39.7213 33.1721 39.7041 32.6719C39.6956 32.4234 39.6822 32.2118 39.6621 32.0498C39.6522 31.97 39.6395 31.8892 39.6211 31.8174C39.6119 31.7816 39.5985 31.7376 39.5791 31.6924C39.5667 31.6635 39.5434 31.6125 39.502 31.5586L39.4541 31.5049L39.3877 31.4482C39.2301 31.3359 39.0613 31.352 39.0029 31.3613C38.9234 31.3741 38.8609 31.402 38.8301 31.417C38.7627 31.4499 38.6976 31.4951 38.6455 31.5332C38.5348 31.6142 38.3918 31.7341 38.2227 31.8838C37.8801 32.1871 37.389 32.6496 36.7568 33.2637C35.4906 34.4939 33.6358 36.3515 31.2188 38.8037C27.6665 42.4037 25.649 44.4779 24.4805 45.8125C23.341 47.114 22.9603 47.7678 22.7646 48.499C22.7438 48.4989 22.7171 48.4985 22.6836 48.4951C22.6395 48.4907 22.5878 48.4831 22.5283 48.4717C22.6036 48.2366 22.7691 47.8412 23.0781 47.1641C23.2834 46.7268 23.5433 46.3169 24.6562 45.1104C25.4956 44.2004 26.8005 42.8582 28.8984 40.7334L31.2725 38.335C33.4334 36.1589 35.3809 34.164 36.7891 32.6904C37.4928 31.9541 38.0647 31.3456 38.4609 30.9092C38.6583 30.6918 38.8157 30.5124 38.9258 30.3799C38.98 30.3146 39.0292 30.2534 39.0664 30.2012C39.0843 30.176 39.1062 30.1431 39.126 30.1074C39.1358 30.0897 39.1502 30.0621 39.1631 30.0283C39.1729 30.0026 39.1985 29.9314 39.1982 29.8379C39.1977 29.6557 39.1339 29.4431 39.0703 29.2637C38.9998 29.0645 38.9016 28.8306 38.7861 28.5791C38.5546 28.0747 38.2404 27.471 37.9062 26.875C37.5719 26.2786 37.2123 25.682 36.8867 25.1934C36.7241 24.9493 36.5673 24.7271 36.4238 24.5439C36.286 24.3679 36.1409 24.2019 36.0029 24.0898L35.9424 24.0459C35.7968 23.9528 35.6239 23.9239 35.4473 23.9609C35.2878 23.9944 35.1403 24.0787 35.0117 24.166C34.7459 24.3466 34.361 24.6811 33.7783 25.2324C32.6006 26.3468 30.5112 28.4472 26.7266 32.2734C23.5302 35.5049 21.4266 37.6578 20.0723 39.0967C19.3954 39.8158 18.9004 40.361 18.5488 40.7764C18.2042 41.1835 17.9744 41.4917 17.8486 41.7295L17.8477 41.7305C17.3377 42.6976 17.0483 43.9289 16.9863 45.0254C16.9552 45.5759 16.9805 46.1105 17.0723 46.5752C17.1337 46.8864 17.2319 47.1922 17.3809 47.4541C11.2486 45.5878 5.63172 40.7204 2.81055 34.708H2.81152C0.16253 29.025 -0.223895 22.7694 1.72656 16.9346L1.92285 16.3711C3.50733 12.0073 6.32719 8.17481 10.1299 5.23047L10.501 4.94824C10.6927 4.80475 10.8577 4.67654 11.0029 4.56543C10.3656 5.46811 9.93051 6.26987 9.64551 7.23926C9.29387 8.43551 9.17813 9.854 9.125 11.9775C9.09357 12.9247 9.08766 13.7415 9.10059 14.3252C9.10701 14.6152 9.11831 14.8567 9.13477 15.0303C9.1427 15.1139 9.15352 15.2001 9.16992 15.2725C9.1772 15.3046 9.19178 15.3641 9.22168 15.4258C9.23622 15.4558 9.26763 15.5145 9.3252 15.5723C9.38551 15.6327 9.50875 15.7231 9.68848 15.7227C9.78126 15.7223 9.85144 15.6967 9.875 15.6875C9.90658 15.6751 9.93163 15.6616 9.94629 15.6533C9.97593 15.6366 10.0008 15.6189 10.0166 15.6074C10.05 15.5832 10.0861 15.5541 10.1201 15.5254C10.1901 15.4662 10.282 15.3835 10.3906 15.2832C10.6093 15.0812 10.9122 14.7916 11.2764 14.4375C12.0057 13.7284 12.9894 12.7508 14.0537 11.6748L17.7637 7.92383L20.8594 7.91309L23.6777 7.90332L23.6855 9.95996C23.6902 11.3379 23.6093 12.7092 23.5508 13.0674C23.5349 13.1251 23.4913 13.2312 23.3467 13.4355C23.191 13.6555 22.9398 13.9613 22.5332 14.4121C21.9244 15.0871 20.9935 16.0601 19.5713 17.5176L17.9785 19.1436C12.444 24.7735 11.5128 25.8617 10.5469 28.0186V28.0205C10.0485 29.1438 9.74987 29.9155 9.58691 30.833C9.42605 31.7388 9.40079 32.7666 9.40625 34.3945C9.41482 36.9512 9.46371 37.627 9.77539 38.498L9.77832 38.5059L9.78125 38.5127C9.88056 38.764 9.98683 39.0046 10.0811 39.1875C10.127 39.2768 10.1772 39.3659 10.2275 39.4385C10.2515 39.4731 10.2878 39.5216 10.334 39.5664C10.3572 39.5889 10.3944 39.6224 10.4453 39.6523C10.4931 39.6805 10.5874 39.7256 10.7139 39.7256H10.7168C10.883 39.7246 10.9963 39.6454 11.0469 39.6025C11.1003 39.5573 11.1345 39.5104 11.1523 39.4834C11.1887 39.4282 11.2128 39.3723 11.2266 39.3369C11.2563 39.2603 11.2813 39.1698 11.3018 39.0801C11.3432 38.8984 11.3791 38.6615 11.3975 38.4092C11.4389 37.9792 11.7139 37.1447 12.082 36.3643L12.083 36.3652C12.3617 35.7852 12.5838 35.3931 13.7725 34.0977C14.9729 32.7893 17.124 30.5959 21.2412 26.416H21.2422C24.8146 22.787 26.9958 20.5463 28.3486 19.0938C29.6863 17.6575 30.2497 16.9546 30.542 16.4141L30.543 16.415C31.8065 14.1274 32.2689 11.7015 31.9004 9.22266H31.9014C31.4983 6.4739 30.5643 4.61554 28.5547 2.62891C27.5875 1.65276 26.7323 1.01291 25.6787 0.503906ZM28.2656 19.626L20.8447 27.1279C18.7947 29.1918 16.8773 31.157 15.4375 32.6582C14.7179 33.4085 14.1163 34.0443 13.6768 34.5195C13.4572 34.7569 13.2762 34.9562 13.1406 35.1104C13.016 35.252 12.9061 35.3813 12.8486 35.4678C11.937 36.8324 11.5352 38.1908 11.5225 39.8223V39.8232C11.5122 42.2672 12.5609 44.3734 14.6016 46.0088C14.9382 46.28 15.2179 46.4959 15.4434 46.6455C15.5561 46.7203 15.667 46.7867 15.7734 46.8359C15.8735 46.8822 16.0086 46.9318 16.1592 46.9346C16.3345 46.9378 16.5241 46.8757 16.6631 46.7139C16.7806 46.577 16.8187 46.4182 16.834 46.3125C16.8641 46.1033 16.8373 45.8398 16.8027 45.582C16.7429 45.1348 16.7936 44.4453 16.9434 43.6973C17.0914 42.9577 17.3259 42.2128 17.5996 41.6572C17.6666 41.5247 17.8194 41.2987 18.1426 40.9102C18.4603 40.5282 18.9232 40.0125 19.5869 39.3037C20.914 37.8865 23.026 35.7204 26.3516 32.3584L26.3525 32.3574C28.6585 30.0174 30.7549 27.8675 32.2754 26.2891C33.0355 25.5001 33.6531 24.852 34.0811 24.3945C34.2945 24.1664 34.4637 23.9835 34.5801 23.8525C34.6376 23.7878 34.6865 23.7312 34.7227 23.6865C34.7398 23.6653 34.76 23.639 34.7783 23.6123C34.7869 23.5998 34.8016 23.5769 34.8164 23.5488C34.8238 23.5348 34.8357 23.511 34.8467 23.4805C34.8553 23.4563 34.8772 23.3917 34.877 23.3066L34.8691 23.2061C34.8539 23.1103 34.82 23.0299 34.79 22.9717C34.7479 22.8899 34.6939 22.8151 34.6406 22.75C34.534 22.6198 34.3926 22.4853 34.2373 22.3535C33.924 22.0877 33.4987 21.7869 33.0273 21.4883C32.086 20.892 30.9036 20.2677 29.9473 19.918L29.9424 19.917L28.7891 19.5068L28.4893 19.3994L28.2656 19.626Z" fill="#BD7F10" stroke="#BD7F10"/>
</g>
<defs>
<clipPath id="clip0_5_25">
<rect width="49" height="49" rx="24.5" fill="white"/>
</clipPath>
</defs>
</svg>
