<svg width="469" height="235" viewBox="0 0 469 235" fill="none" xmlns="http://www.w3.org/2000/svg">
<g clip-path="url(#clip0_42_5508)">
<path d="M104.699 233.612C148.054 233.612 183.199 228.436 183.199 222.051C183.199 215.667 148.054 210.491 104.699 210.491C61.3449 210.491 26.1992 215.667 26.1992 222.051C26.1992 228.436 61.3449 233.612 104.699 233.612Z" fill="url(#paint0_radial_42_5508)"/>
<path d="M94.8008 235.823C138.155 235.823 173.301 230.647 173.301 224.262C173.301 217.878 138.155 212.702 94.8008 212.702C51.4464 212.702 16.3008 217.878 16.3008 224.262C16.3008 230.647 51.4464 235.823 94.8008 235.823Z" fill="url(#paint1_radial_42_5508)"/>
<path d="M373.102 234.8C416.456 234.8 451.602 229.624 451.602 223.239C451.602 216.854 416.456 211.678 373.102 211.678C329.747 211.678 294.602 216.854 294.602 223.239C294.602 229.624 329.747 234.8 373.102 234.8Z" fill="url(#paint2_radial_42_5508)"/>
<path d="M383.199 237.602C426.554 237.602 461.699 231.757 461.699 224.546C461.699 217.336 426.554 211.491 383.199 211.491C339.845 211.491 304.699 217.336 304.699 224.546C304.699 231.757 339.845 237.602 383.199 237.602Z" fill="url(#paint3_radial_42_5508)"/>
<path d="M234.5 235C364.011 235 469 229.155 469 221.945C469 214.734 364.011 208.889 234.5 208.889C104.989 208.889 0 214.734 0 221.945C0 229.155 104.989 235 234.5 235Z" fill="url(#paint4_radial_42_5508)"/>
<path d="M212.898 233.405C273.65 233.405 322.898 228.229 322.898 221.844C322.898 215.46 273.65 210.284 212.898 210.284C152.147 210.284 102.898 215.46 102.898 221.844C102.898 228.229 152.147 233.405 212.898 233.405Z" fill="url(#paint5_radial_42_5508)"/>
<path d="M130.402 162.014L101.102 161.217L115.102 161.117L145.402 161.914L130.402 162.014Z" fill="url(#paint6_linear_42_5508)"/>
<path d="M90.102 196.098V224.103L63.502 218.323V192.61L90.102 196.098Z" fill="url(#paint7_linear_42_5508)"/>
<path d="M90.102 162.214L63.502 161.317V135.803L90.102 134.408V162.214Z" fill="url(#paint8_linear_42_5508)"/>
<path d="M76.8021 162.214L51.2021 161.416L63.5022 161.317L90.1021 162.214H76.8021Z" fill="url(#paint9_linear_42_5508)"/>
<path d="M30.702 197.095L8.50195 193.407V164.406L30.702 165.502V197.095Z" fill="url(#paint10_linear_42_5508)"/>
<path d="M30.702 165.502L8.50195 164.406L41.902 84.8768L66.8019 78.9968L30.702 165.502Z" fill="url(#paint11_linear_42_5508)"/>
<path d="M145.402 161.915V195.201L130.402 195.5V223.007L125.202 223.106L90.1021 224.103V196.098L63.5022 196.596L30.7021 197.095V165.502L66.8021 78.9968L109.202 80.1928L76.8021 162.214H90.1021V134.408L119.602 134.608H130.402V162.014L145.402 161.915Z" fill="url(#paint12_linear_42_5508)"/>
<path d="M145.402 161.915V195.201L130.402 195.5V223.007L125.202 223.106L90.1021 224.103V196.098L30.7021 197.095V165.502L66.8021 78.9968L109.202 80.1928L76.8021 162.214H90.1021V134.408L119.602 134.608H130.402V162.014L145.402 161.915Z" stroke="url(#paint13_linear_42_5508)" stroke-width="0.2659" stroke-miterlimit="10" stroke-linecap="round" stroke-linejoin="round"/>
<path d="M145.403 161.915V195.202L130.403 195.501V223.007L125.203 223.107C111.103 185.037 115.303 152.049 119.503 134.509L130.403 134.608V161.915H145.403Z" fill="url(#paint14_linear_42_5508)"/>
<path d="M232.096 187.281C231.892 187.281 231.79 187.281 231.586 187.383H231.484C231.28 187.383 231.178 187.383 230.974 187.383C230.77 187.383 230.566 187.383 230.362 187.383C229.139 187.383 228.119 187.178 227.099 186.871C226.589 186.666 226.182 186.461 225.672 186.256C225.264 185.949 224.856 185.642 224.448 185.335C224.04 185.027 223.734 184.617 223.428 184.208C223.326 184.105 223.326 184.003 223.224 183.9C222.918 183.491 222.612 183.081 222.409 182.569C222.409 182.569 222.409 182.466 222.307 182.466C222.001 181.954 221.797 181.442 221.491 180.827C221.389 180.725 221.389 180.52 221.287 180.418C221.083 179.803 220.777 179.189 220.573 178.574C220.573 178.472 220.573 178.472 220.471 178.369C220.267 177.755 220.063 177.037 219.961 176.32C219.961 176.116 219.859 176.013 219.859 175.808C219.655 175.091 219.553 174.272 219.349 173.35C219.247 173.043 219.247 172.633 219.145 172.326C219.043 171.711 218.941 170.994 218.839 170.379C218.839 169.97 218.737 169.56 218.737 169.15C218.635 168.433 218.635 167.819 218.534 167.102C218.432 166.487 218.432 165.872 218.33 165.258C218.33 165.155 218.33 164.95 218.33 164.848C218.228 163.926 218.228 162.902 218.126 161.877C218.126 161.673 218.126 161.365 218.126 161.16C218.126 160.443 218.024 159.726 218.024 159.009C218.024 158.805 218.024 158.6 218.024 158.395C218.024 157.473 217.922 156.551 217.922 155.527C217.922 155.322 217.922 155.015 217.922 154.81C217.922 153.99 217.922 153.273 217.922 152.454C217.922 152.146 217.922 151.839 217.922 151.532C217.922 150.507 217.922 149.381 217.922 148.356C217.922 147.127 217.922 145.898 217.922 144.771C217.922 144.464 217.922 144.259 217.922 143.952C217.922 142.825 217.922 141.698 218.024 140.674C218.024 140.572 218.024 140.367 218.024 140.264C218.024 139.342 218.126 138.318 218.126 137.396C218.126 137.191 218.126 136.986 218.126 136.679C218.126 135.655 218.228 134.733 218.228 133.811C218.228 133.606 218.228 133.401 218.228 133.196C218.228 132.582 218.33 131.967 218.33 131.353C218.33 131.148 218.33 130.84 218.432 130.636C218.432 130.328 218.534 130.021 218.534 129.611C218.635 128.689 218.737 127.767 218.839 126.948C218.839 126.743 218.839 126.538 218.941 126.333C219.043 125.309 219.247 124.387 219.349 123.465C219.349 123.363 219.349 123.26 219.349 123.26C219.553 122.339 219.655 121.417 219.859 120.597C220.063 119.778 220.267 118.958 220.471 118.139C220.471 118.139 220.471 118.139 220.471 118.036C220.675 117.319 220.981 116.602 221.185 115.885C221.491 115.271 221.797 114.656 222.103 114.042C222.409 113.529 222.714 113.017 223.122 112.505C223.428 112.095 223.836 111.686 224.142 111.378C224.244 111.276 224.244 111.276 224.346 111.173C224.754 110.866 225.06 110.559 225.468 110.354C225.774 110.149 226.182 110.047 226.487 109.842C226.895 109.739 227.201 109.535 227.609 109.432C227.813 109.432 228.017 109.33 228.119 109.33C228.731 109.227 229.343 109.125 229.955 109.125C230.159 109.125 230.362 109.125 230.566 109.125C230.77 109.125 230.974 109.125 231.178 109.125C231.382 109.125 231.586 109.125 231.79 109.227C231.994 109.227 232.198 109.33 232.3 109.33L216.698 105.847C216.494 105.847 216.29 105.745 216.086 105.745C215.882 105.745 215.678 105.642 215.474 105.642C215.27 105.642 215.066 105.642 214.862 105.642C214.659 105.642 214.455 105.642 214.149 105.642C213.537 105.642 213.027 105.745 212.517 105.745C212.415 105.745 212.313 105.745 212.211 105.745C212.109 105.745 212.007 105.745 212.007 105.745C211.599 105.847 211.191 105.949 210.784 106.052C210.682 106.052 210.58 106.154 210.478 106.154C210.274 106.257 210.172 106.257 209.968 106.359C209.662 106.462 209.356 106.666 209.152 106.769C208.846 106.974 208.54 107.179 208.336 107.383C208.234 107.486 208.132 107.588 207.928 107.691L207.826 107.793L207.724 107.896C207.418 108.203 207.112 108.51 206.807 108.817C206.705 108.92 206.705 109.022 206.603 109.022C206.501 109.125 206.399 109.227 206.399 109.33C206.297 109.432 206.195 109.535 206.195 109.637C206.093 109.739 205.991 109.842 205.991 110.047C205.889 110.149 205.889 110.252 205.787 110.456L205.685 110.559C205.685 110.661 205.583 110.661 205.583 110.764C205.481 110.866 205.481 111.071 205.379 111.173C205.277 111.276 205.277 111.481 205.175 111.583C205.073 111.788 205.073 111.89 204.971 112.095C204.869 112.198 204.869 112.403 204.767 112.505C204.665 112.71 204.665 112.812 204.563 113.017C204.461 113.222 204.461 113.325 204.359 113.529C204.257 113.734 204.155 113.939 204.155 114.246C204.053 114.451 204.053 114.554 203.951 114.759V114.861C203.849 115.066 203.849 115.373 203.747 115.578C203.747 115.68 203.645 115.783 203.645 115.885C203.645 115.988 203.645 115.988 203.543 116.09C203.543 116.193 203.543 116.193 203.441 116.295C203.339 116.602 203.339 116.91 203.237 117.217C203.237 117.319 203.237 117.319 203.237 117.422C203.135 117.832 203.034 118.241 203.034 118.549C203.034 118.549 203.034 118.651 203.034 118.753C203.034 118.856 202.932 119.061 202.932 119.163C202.932 119.368 202.83 119.573 202.83 119.778C202.83 119.88 202.83 119.983 202.728 120.187C202.728 120.392 202.626 120.495 202.626 120.7C202.626 120.802 202.626 121.007 202.524 121.109C202.524 121.212 202.524 121.314 202.524 121.519C202.422 122.031 202.32 122.543 202.32 123.158C202.32 123.26 202.32 123.363 202.218 123.568C202.218 123.67 202.218 123.67 202.218 123.773C202.116 124.49 202.014 125.309 202.014 126.026V126.129C202.014 126.231 202.014 126.333 202.014 126.436C202.014 126.948 201.912 127.358 201.912 127.87C201.912 128.075 201.912 128.28 201.912 128.485C201.912 128.587 201.912 128.689 201.912 128.792C201.912 128.894 201.912 129.099 201.912 129.202C201.912 129.816 201.81 130.533 201.81 131.25C201.81 131.455 201.81 131.557 201.81 131.66C201.81 131.762 201.81 131.762 201.81 131.865C201.708 132.889 201.708 133.913 201.708 135.04C201.708 135.143 201.708 135.245 201.708 135.347C201.708 135.45 201.708 135.655 201.708 135.757C201.708 136.782 201.606 137.806 201.606 138.933C201.606 139.035 201.606 139.137 201.606 139.24V139.342C201.606 140.469 201.606 141.698 201.504 143.03C201.504 143.132 201.504 143.337 201.504 143.44C201.504 143.645 201.504 143.747 201.504 143.952C201.504 145.181 201.504 146.513 201.504 147.844C201.504 149.073 201.504 150.2 201.504 151.327C201.504 151.429 201.504 151.634 201.504 151.737C201.504 151.942 201.504 152.044 201.504 152.249C201.504 153.171 201.504 153.99 201.504 154.912C201.504 155.117 201.504 155.322 201.504 155.424C201.504 155.527 201.504 155.527 201.504 155.629C201.504 156.653 201.504 157.78 201.606 158.702C201.606 158.805 201.606 158.805 201.606 158.907C201.606 159.112 201.606 159.214 201.606 159.317C201.606 160.136 201.708 160.956 201.708 161.673C201.708 161.775 201.708 161.98 201.708 162.082C201.708 162.185 201.708 162.287 201.708 162.39C201.81 163.516 201.81 164.643 201.912 165.667C201.912 165.77 201.912 165.77 201.912 165.872C201.912 165.975 201.912 166.077 201.912 166.18C201.912 166.589 202.014 166.999 202.014 167.409C202.116 168.023 202.116 168.638 202.218 169.253V169.355C202.32 170.379 202.422 171.301 202.524 172.223C202.524 172.326 202.524 172.428 202.524 172.53C202.524 172.633 202.524 172.633 202.524 172.735C202.626 173.555 202.728 174.477 202.932 175.194C202.932 175.296 202.932 175.296 202.932 175.399C202.932 175.501 202.932 175.603 203.034 175.808C203.135 176.218 203.237 176.628 203.237 177.037C203.237 177.14 203.237 177.242 203.339 177.345C203.339 177.447 203.339 177.447 203.441 177.55C203.543 177.959 203.645 178.369 203.747 178.779C203.747 178.881 203.747 178.984 203.849 179.086C203.849 179.086 203.849 179.086 203.849 179.189C203.951 179.701 204.155 180.11 204.257 180.623C204.257 180.623 204.257 180.623 204.257 180.725V180.827C204.461 181.34 204.563 181.852 204.767 182.364C204.869 182.569 204.869 182.671 204.971 182.774C205.073 182.876 205.073 183.081 205.175 183.183C205.277 183.388 205.277 183.491 205.379 183.696C205.583 184.105 205.787 184.515 205.991 184.925C205.991 184.925 205.991 185.027 206.093 185.027C206.297 185.335 206.501 185.744 206.705 186.052C206.807 186.154 206.909 186.359 207.01 186.461C207.112 186.564 207.112 186.666 207.214 186.769C207.316 186.871 207.316 186.973 207.418 186.973C207.52 187.076 207.622 187.178 207.724 187.281C207.826 187.383 207.928 187.486 208.03 187.588C208.132 187.69 208.234 187.793 208.336 187.895C208.438 187.998 208.54 188.1 208.642 188.203C208.744 188.305 208.744 188.305 208.846 188.407C208.948 188.51 209.05 188.51 209.05 188.612C209.152 188.715 209.254 188.715 209.254 188.817C209.356 188.92 209.458 188.92 209.458 189.022H209.56C209.56 189.022 209.662 189.022 209.662 189.125C209.764 189.125 209.764 189.227 209.866 189.227C209.968 189.227 209.968 189.329 210.07 189.329C210.172 189.329 210.172 189.432 210.274 189.432C210.376 189.432 210.376 189.534 210.478 189.534C210.58 189.534 210.58 189.637 210.682 189.637C210.784 189.637 210.784 189.739 210.885 189.739C210.987 189.739 210.987 189.739 211.089 189.842C211.191 189.842 211.191 189.842 211.293 189.944C211.395 189.944 211.395 189.944 211.497 190.046C211.599 190.046 211.599 190.046 211.701 190.149C211.803 190.149 211.803 190.149 211.905 190.251C212.007 190.251 212.109 190.251 212.109 190.354C212.211 190.354 212.313 190.354 212.313 190.354C212.415 190.354 212.517 190.354 212.517 190.354C212.619 190.354 212.721 190.354 212.823 190.354C212.925 190.354 213.027 190.354 213.129 190.354C213.231 190.354 213.333 190.354 213.435 190.354C213.537 190.354 213.639 190.354 213.741 190.354C213.843 190.354 213.945 190.354 214.047 190.354H214.149H214.251H214.353H214.455C214.557 190.354 214.659 190.354 214.76 190.354C214.862 190.354 214.964 190.354 215.066 190.354C215.066 190.354 215.066 190.354 215.168 190.354C215.27 190.354 215.27 190.354 215.372 190.354C215.474 190.354 215.576 190.354 215.678 190.354H215.78C215.78 190.354 215.78 190.354 215.882 190.354H215.984C216.086 190.354 216.188 190.354 216.29 190.354C216.29 190.354 216.29 190.354 216.392 190.354C216.494 190.354 216.494 190.354 216.596 190.354C216.698 190.354 216.8 190.354 216.902 190.251L232.504 186.769C232.504 187.178 232.3 187.178 232.096 187.281Z" fill="url(#paint15_linear_42_5508)"/>
<path d="M272.7 140.821L283.5 141.419C283.5 142.016 283.6 142.614 283.6 143.113C283.6 143.711 283.6 144.309 283.7 144.907C283.7 145.505 283.7 146.103 283.7 146.701C283.7 147.298 283.7 147.896 283.7 148.494C283.7 149.192 283.7 149.89 283.7 150.587C283.7 151.285 283.7 151.983 283.7 152.581C283.7 153.278 283.7 153.876 283.6 154.574C283.6 155.271 283.5 155.869 283.5 156.567L272.7 157.265C272.7 156.567 272.8 155.869 272.8 155.072C272.8 154.374 272.9 153.577 272.9 152.879C272.9 152.182 272.9 151.385 272.9 150.687C272.9 149.989 272.9 149.192 272.9 148.395C272.9 147.697 272.9 147.099 272.9 146.402C272.9 145.704 272.9 145.106 272.9 144.508C272.9 143.91 272.9 143.212 272.8 142.614C272.7 142.016 272.7 141.419 272.7 140.821Z" fill="url(#paint16_linear_42_5508)"/>
<path d="M272.6 157.265L283.4 156.567C283.3 157.564 283.3 158.56 283.2 159.557C283.1 160.553 283 161.45 282.9 162.447C282.8 163.344 282.7 164.34 282.6 165.237C282.5 166.134 282.3 167.031 282.2 167.928L271.2 169.722C271.4 168.726 271.5 167.729 271.6 166.732C271.7 165.736 271.9 164.739 272 163.643C272.1 162.646 272.2 161.55 272.3 160.553C272.5 159.457 272.6 158.361 272.6 157.265Z" fill="url(#paint17_linear_42_5508)"/>
<path d="M283.701 148.494C283.701 146.103 283.601 143.711 283.501 141.419C283.401 140.123 283.401 138.927 283.301 137.631C283.301 137.432 283.301 137.133 283.201 136.934C283.201 136.535 283.101 136.236 283.101 135.838C283.001 135.24 283.001 134.542 282.901 133.944C282.801 133.147 282.701 132.25 282.601 131.452C282.601 131.253 282.501 130.954 282.501 130.755C282.501 130.655 282.501 130.556 282.501 130.456C282.301 129.26 282.101 128.164 281.901 127.067C281.901 126.768 281.801 126.569 281.701 126.27C281.701 126.071 281.601 125.871 281.601 125.672C281.501 125.373 281.501 125.074 281.401 124.775C281.301 124.177 281.201 123.679 281.101 123.081C281.001 122.583 280.801 122.084 280.701 121.486C280.601 120.988 280.501 120.589 280.301 120.091C280.201 119.792 280.201 119.593 280.101 119.294C279.801 118.297 279.501 117.301 279.201 116.404C279.101 116.204 279.101 116.005 279.001 115.806V115.706C278.601 114.51 278.201 113.414 277.801 112.318C277.701 112.218 277.701 112.118 277.601 111.919C277.201 111.022 276.801 110.125 276.401 109.128C276.201 108.63 276.001 108.232 275.801 107.733C275.801 107.634 275.701 107.634 275.701 107.534C275.701 107.434 275.601 107.335 275.601 107.335C275.101 106.338 274.601 105.441 274.101 104.544C273.901 104.245 273.801 103.946 273.601 103.647C273.601 103.647 273.601 103.647 273.601 103.547C272.801 102.252 272.001 101.056 271.201 99.86C271.201 99.86 271.201 99.86 271.201 99.7604C271.001 99.4614 270.801 99.2621 270.601 98.9631C270.001 98.0662 269.301 97.2689 268.601 96.4716C268.601 96.3719 268.501 96.3719 268.501 96.2723C268.001 95.774 267.501 95.176 267.001 94.6777C266.701 94.3787 266.501 94.1794 266.201 93.8804C266.101 93.7807 266.101 93.6811 266.001 93.6811C266.001 93.6811 265.901 93.5814 265.801 93.5814C265.701 93.4818 265.601 93.3821 265.501 93.2824C265.001 92.7841 264.501 92.2858 263.901 91.8872C263.701 91.6879 263.401 91.4885 263.201 91.2892C263.101 91.1896 262.901 91.0899 262.801 90.9902C262.601 90.8906 262.501 90.6913 262.301 90.5916C261.901 90.2926 261.601 89.9936 261.201 89.7943C260.801 89.4953 260.401 89.296 260.101 88.997C260.001 88.997 260.001 88.8974 259.901 88.8974L259.801 88.7977C259.501 88.5984 259.201 88.3991 258.901 88.1997C258.501 88.0004 258.101 87.7014 257.701 87.5021C257.401 87.3028 257.001 87.1035 256.601 86.9041C256.501 86.9041 256.501 86.8045 256.401 86.8045C256.401 86.8045 256.301 86.8045 256.301 86.7048C256.001 86.6052 255.801 86.4058 255.501 86.3062C255.101 86.1069 254.801 85.9075 254.401 85.8079C254.001 85.6086 253.701 85.5089 253.301 85.3096C253.301 85.3096 253.201 85.3096 253.201 85.2099C253.201 85.2099 253.101 85.2099 253.101 85.1103C253.101 85.1103 253.001 85.1103 253.001 85.0106C253.001 85.0106 252.901 85.0106 252.901 84.9109C248.401 83.0174 243.901 81.0242 239.301 79.1306C240.601 79.7286 241.901 80.3265 243.201 81.0242C243.201 81.0242 243.301 81.0242 243.301 81.1238C244.501 81.8215 245.701 82.5191 246.901 83.3164L247.001 83.416C248.101 84.1136 249.201 84.9109 250.201 85.8079C250.401 85.9075 250.501 86.1069 250.701 86.2065C251.701 87.0038 252.601 87.9008 253.501 88.698C253.601 88.7977 253.801 88.997 253.901 89.0967C254.801 89.9936 255.701 90.8906 256.501 91.8872C257.301 92.7841 258.001 93.6811 258.701 94.578C258.901 94.877 259.201 95.176 259.401 95.5746C260.301 96.8702 261.201 98.1658 262.001 99.6607C262.201 99.9597 262.401 100.358 262.601 100.657C263.201 101.754 263.801 102.85 264.401 104.046C264.701 104.644 264.901 105.242 265.201 105.74C265.601 106.737 266.101 107.733 266.501 108.73C267.001 110.125 267.601 111.52 268.101 113.015C268.201 113.215 268.201 113.414 268.301 113.613C268.701 114.909 269.101 116.304 269.501 117.699C269.601 118.198 269.801 118.696 269.901 119.194C270.201 120.39 270.501 121.486 270.701 122.782C270.801 123.28 270.901 123.779 271.001 124.377C271.301 125.971 271.601 127.665 271.801 129.36C271.801 129.659 271.901 129.858 271.901 130.157C272.101 131.751 272.301 133.346 272.401 134.941C272.401 135.339 272.501 135.738 272.501 136.037C272.801 140.023 273.001 144.209 273.001 148.594C273.001 157.564 272.301 165.736 270.801 173.111C270.801 173.31 270.701 173.41 270.701 173.609C270.401 175.303 270.001 176.997 269.601 178.692C269.601 178.791 269.601 178.891 269.501 178.991C269.101 180.685 268.601 182.279 268.101 183.874C268.101 183.974 268.001 184.073 268.001 184.273C267.501 185.867 266.901 187.362 266.301 188.857C266.301 188.957 266.201 188.957 266.201 189.056C265.601 190.551 264.901 192.046 264.201 193.441C263.501 194.837 262.801 196.232 262.001 197.528C262.001 197.627 261.901 197.627 261.901 197.727C261.101 199.022 260.301 200.218 259.501 201.414C259.401 201.514 259.401 201.614 259.301 201.713C258.501 202.81 257.601 203.906 256.801 205.002C256.701 205.102 256.701 205.102 256.601 205.201C255.701 206.198 254.801 207.195 253.901 208.092C253.701 208.291 253.501 208.49 253.301 208.69C252.401 209.587 251.401 210.483 250.401 211.281C250.301 211.38 250.201 211.48 250.101 211.58C249.201 212.377 248.201 213.075 247.201 213.673C247.001 213.772 246.801 213.972 246.601 214.071C245.601 214.769 244.501 215.367 243.401 216.064C243.201 216.164 242.901 216.264 242.701 216.463C241.501 217.061 240.401 217.659 239.101 218.157L252.701 212.377C253.801 211.879 254.901 211.38 256.001 210.782C256.201 210.683 256.401 210.583 256.601 210.483C256.801 210.384 257.001 210.284 257.101 210.184C257.901 209.686 258.701 209.188 259.501 208.69C259.701 208.59 259.801 208.49 260.001 208.291C260.401 207.992 260.801 207.793 261.201 207.494C261.701 207.095 262.201 206.696 262.701 206.298C262.801 206.198 262.901 206.098 263.001 206.098C263.701 205.5 264.301 205.002 265.001 204.404C265.201 204.205 265.401 204.006 265.601 203.806C265.701 203.707 265.801 203.607 265.901 203.507C266.001 203.408 266.101 203.308 266.201 203.208C267.001 202.411 267.701 201.614 268.501 200.816C268.601 200.717 268.601 200.717 268.701 200.617C268.801 200.517 268.801 200.517 268.901 200.418C269.201 200.119 269.401 199.82 269.601 199.521C270.001 199.122 270.301 198.624 270.701 198.126C270.901 197.926 271.101 197.627 271.201 197.328C271.301 197.229 271.301 197.129 271.401 197.029C271.501 196.93 271.601 196.73 271.701 196.631C272.001 196.132 272.401 195.634 272.701 195.136C273.001 194.737 273.201 194.239 273.501 193.84C273.501 193.74 273.601 193.74 273.601 193.641C273.601 193.541 273.701 193.541 273.701 193.441C273.901 193.142 274.101 192.844 274.301 192.445C274.601 191.947 274.801 191.548 275.101 191.05C275.301 190.551 275.601 190.153 275.801 189.654C276.001 189.156 276.301 188.658 276.501 188.159C276.701 187.661 276.901 187.163 277.201 186.665C277.401 186.266 277.501 185.967 277.701 185.568C277.701 185.469 277.701 185.469 277.801 185.369C277.801 185.269 277.901 185.17 277.901 185.17C278.101 184.671 278.301 184.173 278.501 183.575C278.701 182.977 278.901 182.479 279.101 181.881C279.201 181.682 279.301 181.383 279.301 181.183C279.301 181.084 279.401 180.984 279.401 180.884C279.501 180.685 279.601 180.386 279.601 180.187C279.801 179.589 280.001 178.991 280.101 178.393C280.301 177.795 280.401 177.197 280.601 176.599C280.601 176.499 280.601 176.499 280.701 176.399C280.701 176.3 280.701 176.2 280.801 176.2C280.901 175.702 281.101 175.104 281.201 174.606C281.401 173.908 281.501 173.21 281.701 172.513C281.801 172.214 281.801 171.915 281.901 171.616C281.901 171.516 281.901 171.516 282.001 171.416C282.101 171.317 282.001 171.217 282.001 171.217C282.101 170.918 282.101 170.619 282.201 170.32C282.301 169.623 282.501 168.825 282.601 168.128C283.201 161.949 283.701 155.471 283.701 148.494Z" fill="url(#paint18_linear_42_5508)"/>
<path d="M270.501 123.081C270.101 120.889 269.501 118.696 269.001 116.603C266.501 107.434 262.601 99.6608 257.701 93.3821C252.801 87.2032 246.601 82.4195 239.401 79.33C232.201 76.2405 224.001 74.7456 214.701 74.8452C205.401 75.0446 197.201 76.7388 190.101 80.0276C183.001 83.3164 177.101 88.1001 172.301 94.3787C167.501 100.657 163.901 108.331 161.501 117.301C159.101 126.37 157.801 136.735 157.801 148.495C157.801 160.254 159.001 170.619 161.501 179.688C163.901 188.757 167.601 196.431 172.301 202.61C177.101 208.889 183.001 213.673 190.101 216.961C197.201 220.25 205.401 222.044 214.701 222.144C218.801 222.243 222.801 221.944 226.501 221.347C231.101 220.649 235.401 219.353 239.401 217.659C246.601 214.57 252.701 209.886 257.701 203.607C262.701 197.328 266.501 189.555 269.001 180.386C271.601 171.118 272.901 160.553 272.901 148.495C272.901 139.226 272.101 130.755 270.501 123.081ZM225.001 180.685C224.001 183.974 222.701 186.266 221.001 187.861C219.301 189.355 217.301 190.053 214.801 190.053C212.301 190.053 210.201 189.355 208.501 187.761C206.801 186.266 205.501 183.874 204.501 180.585C203.501 177.296 202.801 173.111 202.401 167.729C202.001 162.447 201.801 156.069 201.801 148.495C201.801 140.92 202.001 134.542 202.401 129.16C202.801 123.878 203.501 119.593 204.501 116.404C205.501 113.115 206.801 110.823 208.501 109.328C210.201 107.833 212.301 107.135 214.801 107.135C217.301 107.135 219.301 107.733 221.001 109.228C222.701 110.723 224.001 113.015 225.001 116.304C226.001 119.593 226.701 123.779 227.101 129.16C227.501 134.442 227.701 140.92 227.701 148.594C227.701 156.168 227.501 162.547 227.101 167.928C226.701 173.111 226.001 177.396 225.001 180.685Z" fill="url(#paint19_linear_42_5508)"/>
<path d="M270.501 123.081C270.101 120.889 269.501 118.696 269.001 116.603C266.501 107.434 262.601 99.6608 257.701 93.3821C252.801 87.2032 246.601 82.4195 239.401 79.33C232.201 76.2405 224.001 74.7456 214.701 74.8452C205.401 75.0446 197.201 76.7388 190.101 80.0276C183.001 83.3164 177.101 88.1001 172.301 94.3787C167.501 100.657 163.901 108.331 161.501 117.301C159.101 126.37 157.801 136.735 157.801 148.495C157.801 160.254 159.001 170.619 161.501 179.688C163.901 188.757 167.601 196.431 172.301 202.61C177.101 208.889 183.001 213.673 190.101 216.961C197.201 220.25 205.401 222.044 214.701 222.144C218.801 222.243 222.801 221.944 226.501 221.347C231.101 220.649 235.401 219.353 239.401 217.659C246.601 214.57 252.701 209.886 257.701 203.607C262.701 197.328 266.501 189.555 269.001 180.386C271.601 171.118 272.901 160.553 272.901 148.495C272.901 139.226 272.101 130.755 270.501 123.081ZM225.001 180.685C224.001 183.974 222.701 186.266 221.001 187.861C219.301 189.355 217.301 190.053 214.801 190.053C212.301 190.053 210.201 189.355 208.501 187.761C206.801 186.266 205.501 183.874 204.501 180.585C203.501 177.296 202.801 173.111 202.401 167.729C202.001 162.447 201.801 156.069 201.801 148.495C201.801 140.92 202.001 134.542 202.401 129.16C202.801 123.878 203.501 119.593 204.501 116.404C205.501 113.115 206.801 110.823 208.501 109.328C210.201 107.833 212.301 107.135 214.801 107.135C217.301 107.135 219.301 107.733 221.001 109.228C222.701 110.723 224.001 113.015 225.001 116.304C226.001 119.593 226.701 123.779 227.101 129.16C227.501 134.442 227.701 140.92 227.701 148.594C227.701 156.168 227.501 162.547 227.101 167.928C226.701 173.111 226.001 177.396 225.001 180.685Z" stroke="url(#paint20_linear_42_5508)" stroke-width="0.2659" stroke-miterlimit="10" stroke-linecap="round" stroke-linejoin="round"/>
<path d="M272.9 148.495C272.9 160.553 271.6 171.118 269 180.386C266.5 189.555 262.6 197.328 257.7 203.607C252.8 209.886 246.6 214.57 239.4 217.659C235.4 219.353 231.1 220.649 226.5 221.347L270.5 123.081C272.1 130.755 272.9 139.226 272.9 148.495Z" fill="url(#paint21_linear_42_5508)"/>
<path d="M342.402 160.014L360.402 159.217H373.002L356.102 160.114L342.402 160.014Z" fill="url(#paint22_linear_42_5508)"/>
<path d="M376.202 77.0964L391.502 83.0761L360.402 159.217L342.402 160.014L376.202 77.0964Z" fill="url(#paint23_linear_42_5508)"/>
<path d="M412.602 190.809V216.821L399.202 222.9V194.596L412.602 190.809Z" fill="url(#paint24_linear_42_5508)"/>
<path d="M399.202 132.109L412.602 133.504V159.317L399.202 160.213V132.109Z" fill="url(#paint25_radial_42_5508)"/>
<path d="M415.702 160.214L427.802 159.317V191.009L415.702 194.696V160.214Z" fill="url(#paint26_radial_42_5508)"/>
<path d="M399.202 160.214L412.602 159.317H427.802L415.702 160.214H399.202Z" fill="url(#paint27_radial_42_5508)"/>
<path d="M415.702 160.214V194.696H412.602L399.202 194.596V222.9L356.102 222.203V194.098L296.502 193.5V163.004L332.202 77.7941L376.202 76.9968L342.402 160.014L356.102 160.114V132.209L399.202 132.109V160.214H415.702Z" fill="url(#paint28_linear_42_5508)"/>
<path d="M376.202 77.0964L342.402 160.014L356.102 160.114V132.209L399.202 132.109V160.213H415.702V194.696L399.202 194.596V222.9L356.102 222.202V194.098L296.502 193.5V163.004L332.202 77.7941L376.202 77.0964Z" stroke="url(#paint29_linear_42_5508)" stroke-width="0.2659" stroke-miterlimit="10" stroke-linecap="round" stroke-linejoin="round"/>
<path d="M90.102 196.098V196.198L63.502 214.436V196.597L90.102 196.098Z" fill="url(#paint30_linear_42_5508)"/>
<path d="M412.604 194.897V211.242L399.404 194.798L412.604 194.897Z" fill="url(#paint31_linear_42_5508)"/>
<path d="M130.4 162.014L101.1 161.217L115.1 161.118L145.4 161.915L130.4 162.014Z" fill="#BD7F10"/>
<path d="M90.1 196.098V224.103L63.5 218.323V192.61L90.1 196.098Z" fill="#BD7F10"/>
<path d="M90.1 162.214L63.5 161.317V135.804L90.1 134.408V162.214Z" fill="#BD7F10"/>
<path d="M76.8 162.214L51.2 161.417L63.5 161.317L90.1 162.214L76.8 162.214Z" fill="#BD7F10"/>
<path d="M30.7 197.095L8.5 193.408V164.406L30.7 165.503V197.095Z" fill="#BD7F10"/>
<path d="M30.7 165.503L8.5 164.406L41.9 84.8771L66.8 78.9971L30.7 165.503Z" fill="#BD7F10"/>
<path d="M145.4 161.915V195.201L130.4 195.5V223.007L125.2 223.106L90.1 224.103V196.098L63.5 196.597L30.7 197.095V165.503L66.8 78.9971L109.2 80.193L76.8 162.214L90.1 162.214V134.408L119.6 134.608H130.4V162.014L145.4 161.915Z" fill="#BD7F10"/>
<path d="M145.4 161.915V195.201L130.4 195.5V223.007L125.2 223.106L90.1 224.103V196.098L30.7 197.095V165.503L66.8 78.9971L109.2 80.193L76.8 162.214L90.1 162.214V134.408L119.6 134.608H130.4V162.014L145.4 161.915Z" fill="#BD7F10"/>
<path d="M145.401 161.915V195.202L130.401 195.501V223.008L125.201 223.107C111.101 185.037 115.301 152.049 119.501 134.509L130.401 134.608V161.915H145.401Z" fill="#BD7F10"/>
<path d="M232.094 187.281C231.89 187.281 231.788 187.281 231.584 187.383H231.482C231.278 187.383 231.176 187.383 230.972 187.383C230.768 187.383 230.564 187.383 230.36 187.383C229.136 187.383 228.117 187.178 227.097 186.871C226.587 186.666 226.179 186.461 225.669 186.257C225.261 185.949 224.854 185.642 224.446 185.335C224.038 185.027 223.732 184.618 223.426 184.208C223.324 184.105 223.324 184.003 223.222 183.901C222.916 183.491 222.61 183.081 222.406 182.569C222.406 182.569 222.406 182.467 222.304 182.467C221.998 181.954 221.794 181.442 221.488 180.828C221.386 180.725 221.386 180.52 221.284 180.418C221.081 179.803 220.775 179.189 220.571 178.574C220.571 178.472 220.571 178.472 220.469 178.369C220.265 177.755 220.061 177.038 219.959 176.321C219.959 176.116 219.857 176.013 219.857 175.808C219.653 175.091 219.551 174.272 219.347 173.35C219.245 173.043 219.245 172.633 219.143 172.326C219.041 171.711 218.939 170.994 218.837 170.38C218.837 169.97 218.735 169.56 218.735 169.15C218.633 168.433 218.633 167.819 218.531 167.102C218.429 166.487 218.429 165.872 218.327 165.258C218.327 165.155 218.327 164.951 218.327 164.848C218.225 163.926 218.225 162.902 218.123 161.878C218.123 161.673 218.123 161.365 218.123 161.161C218.123 160.444 218.021 159.727 218.021 159.009C218.021 158.805 218.021 158.6 218.021 158.395C218.021 157.473 217.919 156.551 217.919 155.527C217.919 155.322 217.919 155.015 217.919 154.81C217.919 153.99 217.919 153.273 217.919 152.454C217.919 152.147 217.919 151.839 217.919 151.532C217.919 150.508 217.919 149.381 217.919 148.357C217.919 147.127 217.919 145.898 217.919 144.771C217.919 144.464 217.919 144.259 217.919 143.952C217.919 142.825 217.919 141.698 218.021 140.674C218.021 140.572 218.021 140.367 218.021 140.264C218.021 139.342 218.123 138.318 218.123 137.396C218.123 137.191 218.123 136.987 218.123 136.679C218.123 135.655 218.225 134.733 218.225 133.811C218.225 133.606 218.225 133.401 218.225 133.197C218.225 132.582 218.327 131.967 218.327 131.353C218.327 131.148 218.327 130.841 218.429 130.636C218.429 130.328 218.531 130.021 218.531 129.611C218.633 128.69 218.735 127.768 218.837 126.948C218.837 126.743 218.837 126.538 218.939 126.334C219.041 125.309 219.245 124.387 219.347 123.465C219.347 123.363 219.347 123.261 219.347 123.261C219.551 122.339 219.653 121.417 219.857 120.597C220.061 119.778 220.265 118.958 220.469 118.139C220.469 118.139 220.469 118.139 220.469 118.037C220.673 117.32 220.979 116.602 221.182 115.885C221.488 115.271 221.794 114.656 222.1 114.042C222.406 113.53 222.712 113.017 223.12 112.505C223.426 112.095 223.834 111.686 224.14 111.378C224.242 111.276 224.242 111.276 224.344 111.174C224.752 110.866 225.057 110.559 225.465 110.354C225.771 110.149 226.179 110.047 226.485 109.842C226.893 109.74 227.199 109.535 227.607 109.432C227.811 109.432 228.015 109.33 228.117 109.33C228.729 109.227 229.34 109.125 229.952 109.125C230.156 109.125 230.36 109.125 230.564 109.125C230.768 109.125 230.972 109.125 231.176 109.125C231.38 109.125 231.584 109.125 231.788 109.227C231.992 109.227 232.196 109.33 232.298 109.33L216.696 105.847C216.492 105.847 216.288 105.745 216.084 105.745C215.88 105.745 215.676 105.642 215.472 105.642C215.268 105.642 215.064 105.642 214.86 105.642C214.656 105.642 214.452 105.642 214.146 105.642C213.534 105.642 213.025 105.745 212.515 105.745C212.413 105.745 212.311 105.745 212.209 105.745C212.107 105.745 212.005 105.745 212.005 105.745C211.597 105.847 211.189 105.95 210.781 106.052C210.679 106.052 210.577 106.154 210.475 106.154C210.271 106.257 210.169 106.257 209.965 106.359C209.659 106.462 209.354 106.667 209.15 106.769C208.844 106.974 208.538 107.179 208.334 107.384C208.232 107.486 208.13 107.588 207.926 107.691L207.722 107.896C207.416 108.203 207.11 108.51 206.804 108.818C206.702 108.92 206.702 109.022 206.6 109.022C206.498 109.125 206.396 109.227 206.396 109.33C206.294 109.432 206.192 109.535 206.192 109.637C206.09 109.74 205.988 109.842 205.988 110.047C205.886 110.149 205.886 110.252 205.784 110.457L205.682 110.559C205.682 110.661 205.581 110.661 205.581 110.764C205.479 110.866 205.479 111.071 205.377 111.174C205.275 111.276 205.275 111.481 205.173 111.583C205.071 111.788 205.071 111.891 204.969 112.095C204.867 112.198 204.867 112.403 204.765 112.505C204.663 112.71 204.663 112.812 204.561 113.017C204.459 113.222 204.459 113.325 204.357 113.53C204.255 113.734 204.153 113.939 204.153 114.247C204.051 114.451 204.051 114.554 203.949 114.759V114.861C203.847 115.066 203.847 115.373 203.745 115.578C203.745 115.681 203.643 115.783 203.643 115.885C203.643 115.988 203.643 115.988 203.541 116.09C203.541 116.193 203.541 116.193 203.439 116.295C203.337 116.602 203.337 116.91 203.235 117.217C203.235 117.32 203.235 117.32 203.235 117.422C203.133 117.832 203.031 118.241 203.031 118.549C203.031 118.549 203.031 118.651 203.031 118.754C203.031 118.856 202.929 119.061 202.929 119.163C202.929 119.368 202.827 119.573 202.827 119.778C202.827 119.88 202.827 119.983 202.725 120.188C202.725 120.392 202.623 120.495 202.623 120.7C202.623 120.802 202.623 121.007 202.521 121.11C202.521 121.212 202.521 121.314 202.521 121.519C202.419 122.031 202.317 122.544 202.317 123.158C202.317 123.261 202.317 123.363 202.215 123.568C202.215 123.67 202.215 123.67 202.215 123.773C202.113 124.49 202.011 125.309 202.011 126.026V126.129C202.011 126.231 202.011 126.334 202.011 126.436C202.011 126.948 201.909 127.358 201.909 127.87C201.909 128.075 201.909 128.28 201.909 128.485C201.909 128.587 201.909 128.69 201.909 128.792C201.909 128.894 201.909 129.099 201.909 129.202C201.909 129.816 201.807 130.533 201.807 131.25C201.807 131.455 201.807 131.558 201.807 131.66C201.807 131.762 201.807 131.762 201.807 131.865C201.706 132.889 201.706 133.914 201.706 135.04C201.706 135.143 201.706 135.245 201.706 135.348C201.706 135.45 201.706 135.655 201.706 135.757C201.706 136.782 201.604 137.806 201.604 138.933C201.604 139.035 201.604 139.138 201.604 139.24V139.342C201.604 140.469 201.604 141.698 201.502 143.03C201.502 143.132 201.502 143.337 201.502 143.44C201.502 143.645 201.502 143.747 201.502 143.952C201.502 145.181 201.502 146.513 201.502 147.844C201.502 149.074 201.502 150.2 201.502 151.327C201.502 151.43 201.502 151.634 201.502 151.737C201.502 151.942 201.502 152.044 201.502 152.249C201.502 153.171 201.502 153.99 201.502 154.912C201.502 155.117 201.502 155.322 201.502 155.424C201.502 155.527 201.502 155.527 201.502 155.629C201.502 156.654 201.502 157.78 201.604 158.702C201.604 158.805 201.604 158.805 201.604 158.907C201.604 159.112 201.604 159.214 201.604 159.317C201.604 160.136 201.706 160.956 201.706 161.673C201.706 161.775 201.706 161.98 201.706 162.082C201.706 162.185 201.706 162.287 201.706 162.39C201.807 163.517 201.807 164.643 201.909 165.668C201.909 165.77 201.909 165.77 201.909 165.872C201.909 165.975 201.909 166.077 201.909 166.18C201.909 166.59 202.011 166.999 202.011 167.409C202.113 168.024 202.113 168.638 202.215 169.253V169.355C202.317 170.38 202.419 171.301 202.521 172.223C202.521 172.326 202.521 172.428 202.521 172.531C202.521 172.633 202.521 172.633 202.521 172.735C202.623 173.555 202.725 174.477 202.929 175.194C202.929 175.296 202.929 175.296 202.929 175.399C202.929 175.501 202.929 175.604 203.031 175.808C203.133 176.218 203.235 176.628 203.235 177.038C203.235 177.14 203.235 177.242 203.337 177.345C203.337 177.447 203.337 177.447 203.439 177.55C203.541 177.96 203.643 178.369 203.745 178.779C203.745 178.881 203.745 178.984 203.847 179.086C203.847 179.086 203.847 179.086 203.847 179.189C203.949 179.701 204.153 180.111 204.255 180.623C204.255 180.623 204.255 180.623 204.255 180.725V180.828C204.459 181.34 204.561 181.852 204.765 182.364C204.867 182.569 204.867 182.671 204.969 182.774C205.071 182.876 205.071 183.081 205.173 183.184C205.275 183.388 205.275 183.491 205.377 183.696C205.581 184.105 205.784 184.515 205.988 184.925C205.988 184.925 205.988 185.027 206.09 185.027C206.294 185.335 206.498 185.744 206.702 186.052C206.804 186.154 206.906 186.359 207.008 186.461C207.11 186.564 207.11 186.666 207.212 186.769C207.314 186.871 207.314 186.974 207.416 186.974C207.518 187.076 207.62 187.178 207.722 187.281C207.824 187.383 207.926 187.486 208.028 187.588C208.13 187.691 208.232 187.793 208.334 187.895C208.436 187.998 208.538 188.1 208.64 188.203C208.742 188.305 208.742 188.305 208.844 188.408C208.946 188.51 209.048 188.51 209.048 188.612C209.15 188.715 209.252 188.715 209.252 188.817C209.354 188.92 209.456 188.92 209.456 189.022H209.557C209.557 189.022 209.659 189.022 209.659 189.125C209.761 189.125 209.761 189.227 209.863 189.227C209.965 189.227 209.965 189.33 210.067 189.33C210.169 189.33 210.169 189.432 210.271 189.432C210.373 189.432 210.373 189.534 210.475 189.534C210.577 189.534 210.577 189.637 210.679 189.637C210.781 189.637 210.781 189.739 210.883 189.739C210.985 189.739 210.985 189.739 211.087 189.842C211.189 189.842 211.189 189.842 211.291 189.944C211.393 189.944 211.393 189.944 211.495 190.047C211.597 190.047 211.597 190.047 211.699 190.149C211.801 190.149 211.801 190.149 211.903 190.251C212.005 190.251 212.107 190.251 212.107 190.354C212.209 190.354 212.311 190.354 212.311 190.354C212.413 190.354 212.515 190.354 212.515 190.354C212.617 190.354 212.719 190.354 212.821 190.354C212.923 190.354 213.025 190.354 213.127 190.354C213.229 190.354 213.331 190.354 213.432 190.354C213.534 190.354 213.636 190.354 213.738 190.354C213.84 190.354 213.942 190.354 214.044 190.354H214.452C214.554 190.354 214.656 190.354 214.758 190.354C214.86 190.354 214.962 190.354 215.064 190.354C215.064 190.354 215.064 190.354 215.166 190.354C215.268 190.354 215.268 190.354 215.37 190.354C215.472 190.354 215.574 190.354 215.676 190.354H215.778C215.778 190.354 215.778 190.354 215.88 190.354H215.982C216.084 190.354 216.186 190.354 216.288 190.354C216.288 190.354 216.288 190.354 216.39 190.354C216.492 190.354 216.492 190.354 216.594 190.354C216.696 190.354 216.798 190.354 216.9 190.251L232.502 186.769C232.502 187.178 232.298 187.178 232.094 187.281Z" fill="#BD7F10"/>
<path d="M272.698 140.821L283.498 141.419C283.498 142.017 283.598 142.615 283.598 143.113C283.598 143.711 283.598 144.309 283.698 144.907C283.698 145.505 283.698 146.103 283.698 146.701C283.698 147.299 283.698 147.897 283.698 148.495C283.698 149.192 283.698 149.89 283.698 150.588C283.698 151.285 283.698 151.983 283.698 152.581C283.698 153.278 283.698 153.876 283.598 154.574C283.598 155.272 283.498 155.87 283.498 156.567L272.698 157.265C272.698 156.567 272.798 155.87 272.798 155.072C272.798 154.375 272.898 153.577 272.898 152.88C272.898 152.182 272.898 151.385 272.898 150.687C272.898 149.99 272.898 149.192 272.898 148.395C272.898 147.697 272.898 147.1 272.898 146.402C272.898 145.704 272.898 145.106 272.898 144.508C272.898 143.91 272.898 143.213 272.798 142.615C272.698 142.017 272.698 141.419 272.698 140.821Z" fill="#BD7F10"/>
<path d="M272.598 157.265L283.398 156.567C283.298 157.564 283.298 158.561 283.198 159.557C283.098 160.554 282.998 161.451 282.898 162.447C282.798 163.344 282.698 164.341 282.598 165.238C282.498 166.135 282.298 167.032 282.198 167.929L271.198 169.723C271.398 168.726 271.498 167.729 271.598 166.733C271.698 165.736 271.898 164.739 271.998 163.643C272.098 162.647 272.198 161.55 272.298 160.554C272.498 159.457 272.598 158.361 272.598 157.265Z" fill="#BD7F10"/>
<path d="M283.698 148.495C283.698 146.103 283.598 143.711 283.498 141.419C283.398 140.123 283.398 138.927 283.298 137.632C283.298 137.432 283.298 137.133 283.198 136.934C283.198 136.535 283.098 136.237 283.098 135.838C282.998 135.24 282.998 134.542 282.898 133.944C282.798 133.147 282.698 132.25 282.598 131.453C282.598 131.253 282.498 130.954 282.498 130.755C282.498 130.655 282.498 130.556 282.498 130.456C282.298 129.26 282.098 128.164 281.898 127.068C281.898 126.769 281.798 126.569 281.698 126.27C281.698 126.071 281.598 125.872 281.598 125.672C281.498 125.373 281.498 125.074 281.398 124.776C281.298 124.178 281.198 123.679 281.098 123.081C280.998 122.583 280.798 122.085 280.698 121.487C280.598 120.988 280.498 120.59 280.298 120.091C280.198 119.792 280.198 119.593 280.098 119.294C279.798 118.298 279.498 117.301 279.198 116.404C279.098 116.205 279.098 116.005 278.998 115.806V115.706C278.598 114.51 278.198 113.414 277.798 112.318C277.698 112.218 277.698 112.119 277.598 111.919C277.198 111.022 276.798 110.125 276.398 109.129C276.198 108.63 275.998 108.232 275.798 107.734C275.798 107.634 275.698 107.634 275.698 107.534C275.698 107.435 275.598 107.335 275.598 107.335C275.098 106.338 274.598 105.441 274.098 104.544C273.898 104.245 273.798 103.946 273.598 103.647C273.598 103.647 273.598 103.647 273.598 103.548C272.798 102.252 271.998 101.056 271.198 99.8603C271.198 99.8603 271.198 99.8603 271.198 99.7607C270.998 99.4617 270.798 99.2624 270.598 98.9634C269.998 98.0664 269.298 97.2692 268.598 96.4719C268.598 96.3722 268.498 96.3722 268.498 96.2725C267.998 95.7742 267.498 95.1763 266.998 94.678C266.698 94.379 266.498 94.1797 266.198 93.8807C266.098 93.781 266.098 93.6814 265.998 93.6814C265.998 93.6814 265.898 93.5817 265.798 93.5817C265.698 93.482 265.598 93.3824 265.498 93.2827C264.998 92.7844 264.498 92.2861 263.898 91.8875C263.698 91.6882 263.398 91.4888 263.198 91.2895C263.098 91.1898 262.898 91.0902 262.798 90.9905C262.598 90.8909 262.498 90.6915 262.298 90.5919C261.898 90.2929 261.598 89.9939 261.198 89.7946C260.798 89.4956 260.398 89.2963 260.098 88.9973C259.998 88.9973 259.998 88.8977 259.898 88.8977L259.798 88.798C259.498 88.5987 259.198 88.3994 258.898 88.2C258.498 88.0007 258.098 87.7017 257.698 87.5024C257.398 87.3031 256.998 87.1038 256.598 86.9044C256.498 86.9044 256.498 86.8048 256.398 86.8048C256.398 86.8048 256.298 86.8048 256.298 86.7051C255.998 86.6055 255.798 86.4061 255.498 86.3065C255.098 86.1072 254.798 85.9078 254.398 85.8082C253.998 85.6088 253.698 85.5092 253.298 85.3099C253.298 85.3099 253.198 85.3099 253.198 85.2102C253.198 85.2102 253.098 85.2102 253.098 85.1105C253.098 85.1105 252.998 85.1105 252.998 85.0109C252.998 85.0109 252.898 85.0109 252.898 84.9112C248.398 83.0177 243.898 81.0245 239.298 79.1309C240.598 79.7289 241.898 80.3268 243.198 81.0245C243.198 81.0245 243.298 81.0245 243.298 81.1241C244.498 81.8217 245.698 82.5194 246.898 83.3167L246.998 83.4163C248.098 84.1139 249.198 84.9112 250.198 85.8082C250.398 85.9078 250.498 86.1072 250.698 86.2068C251.698 87.0041 252.598 87.901 253.498 88.6983C253.598 88.798 253.798 88.9973 253.898 89.097C254.798 89.9939 255.698 90.8909 256.498 91.8875C257.298 92.7844 257.998 93.6814 258.698 94.5783C258.898 94.8773 259.198 95.1763 259.398 95.5749C260.298 96.8705 261.198 98.1661 261.998 99.661C262.198 99.96 262.398 100.359 262.598 100.658C263.198 101.754 263.798 102.85 264.398 104.046C264.698 104.644 264.898 105.242 265.198 105.74C265.598 106.737 266.098 107.734 266.498 108.73C266.998 110.125 267.598 111.521 268.098 113.016C268.198 113.215 268.198 113.414 268.298 113.614C268.698 114.909 269.098 116.304 269.498 117.7C269.598 118.198 269.798 118.696 269.898 119.195C270.198 120.39 270.498 121.487 270.698 122.782C270.798 123.281 270.898 123.779 270.998 124.377C271.298 125.971 271.598 127.666 271.798 129.36C271.798 129.659 271.898 129.858 271.898 130.157C272.098 131.752 272.298 133.346 272.398 134.941C272.398 135.34 272.498 135.738 272.498 136.037C272.798 140.024 272.998 144.209 272.998 148.594C272.998 157.564 272.298 165.736 270.798 173.111C270.798 173.31 270.698 173.41 270.698 173.609C270.398 175.303 269.998 176.998 269.598 178.692C269.598 178.792 269.598 178.891 269.498 178.991C269.098 180.685 268.598 182.28 268.098 183.874C268.098 183.974 267.998 184.074 267.998 184.273C267.498 185.868 266.898 187.362 266.298 188.857C266.298 188.957 266.198 188.957 266.198 189.057C265.598 190.552 264.898 192.047 264.198 193.442C263.498 194.837 262.798 196.232 261.998 197.528C261.998 197.628 261.898 197.628 261.898 197.727C261.098 199.023 260.298 200.219 259.498 201.415C259.398 201.514 259.398 201.614 259.298 201.714C258.498 202.81 257.598 203.906 256.798 205.002C256.698 205.102 256.698 205.102 256.598 205.202C255.698 206.198 254.798 207.195 253.898 208.092C253.698 208.291 253.498 208.491 253.298 208.69C252.398 209.587 251.398 210.484 250.398 211.281C250.298 211.381 250.198 211.48 250.098 211.58C249.198 212.377 248.198 213.075 247.198 213.673C246.998 213.773 246.798 213.972 246.598 214.072C245.598 214.769 244.498 215.367 243.398 216.065C243.198 216.164 242.898 216.264 242.698 216.463C241.498 217.061 240.398 217.659 239.098 218.158L252.698 212.377C253.798 211.879 254.898 211.381 255.998 210.783C256.198 210.683 256.398 210.583 256.598 210.484C256.798 210.384 256.998 210.284 257.098 210.185C257.898 209.686 258.698 209.188 259.498 208.69C259.698 208.59 259.798 208.491 259.998 208.291C260.398 207.992 260.798 207.793 261.198 207.494C261.698 207.095 262.198 206.697 262.698 206.298C262.798 206.198 262.898 206.099 262.998 206.099C263.698 205.501 264.298 205.002 264.998 204.404C265.198 204.205 265.398 204.006 265.598 203.806C265.698 203.707 265.798 203.607 265.898 203.507C265.998 203.408 266.098 203.308 266.198 203.209C266.998 202.411 267.698 201.614 268.498 200.817C268.598 200.717 268.598 200.717 268.698 200.617C268.798 200.518 268.798 200.518 268.898 200.418C269.198 200.119 269.398 199.82 269.598 199.521C269.998 199.122 270.298 198.624 270.698 198.126C270.898 197.926 271.098 197.628 271.198 197.329C271.298 197.229 271.298 197.129 271.398 197.03C271.498 196.93 271.598 196.731 271.698 196.631C271.998 196.133 272.398 195.634 272.698 195.136C272.998 194.737 273.198 194.239 273.498 193.84C273.498 193.741 273.598 193.741 273.598 193.641C273.598 193.541 273.698 193.541 273.698 193.442C273.898 193.143 274.098 192.844 274.298 192.445C274.598 191.947 274.798 191.548 275.098 191.05C275.298 190.552 275.598 190.153 275.798 189.655C275.998 189.156 276.298 188.658 276.498 188.16C276.698 187.661 276.898 187.163 277.198 186.665C277.398 186.266 277.498 185.967 277.698 185.569C277.698 185.469 277.698 185.469 277.798 185.369C277.798 185.27 277.898 185.17 277.898 185.17C278.098 184.672 278.298 184.173 278.498 183.575C278.698 182.977 278.898 182.479 279.098 181.881C279.198 181.682 279.298 181.383 279.298 181.183C279.298 181.084 279.398 180.984 279.398 180.885C279.498 180.685 279.598 180.386 279.598 180.187C279.798 179.589 279.998 178.991 280.098 178.393C280.298 177.795 280.398 177.197 280.598 176.599C280.598 176.499 280.598 176.499 280.698 176.4C280.698 176.3 280.698 176.2 280.798 176.2C280.898 175.702 281.098 175.104 281.198 174.606C281.398 173.908 281.498 173.211 281.698 172.513C281.798 172.214 281.798 171.915 281.898 171.616C281.898 171.516 281.898 171.516 281.998 171.417C282.098 171.317 281.998 171.217 281.998 171.217C282.098 170.918 282.098 170.619 282.198 170.32C282.298 169.623 282.498 168.826 282.598 168.128C283.198 161.949 283.698 155.471 283.698 148.495Z" fill="#BD7F10"/>
<path d="M270.498 123.081C270.098 120.889 269.498 118.696 268.998 116.603C266.498 107.435 262.598 99.661 257.698 93.3824C252.798 87.2034 246.598 82.4197 239.398 79.3302C232.198 76.2407 223.998 74.7458 214.698 74.8455C205.398 75.0448 197.198 76.7391 190.098 80.0279C182.998 83.3167 177.098 88.1004 172.298 94.379C167.498 100.658 163.898 108.331 161.498 117.301C159.098 126.37 157.798 136.735 157.798 148.495C157.798 160.255 158.998 170.619 161.498 179.689C163.898 188.758 167.598 196.432 172.298 202.611C177.098 208.889 182.998 213.673 190.098 216.962C197.198 220.25 205.398 222.044 214.698 222.144C218.798 222.244 222.798 221.945 226.498 221.347C231.098 220.649 235.398 219.354 239.398 217.659C246.598 214.57 252.698 209.886 257.698 203.607C262.698 197.329 266.498 189.555 268.998 180.386C271.598 171.118 272.898 160.554 272.898 148.495C272.898 139.226 272.098 130.755 270.498 123.081ZM224.998 180.685C223.998 183.974 222.698 186.266 220.998 187.861C219.298 189.356 217.298 190.053 214.798 190.053C212.298 190.053 210.198 189.356 208.498 187.761C206.798 186.266 205.498 183.874 204.498 180.586C203.498 177.297 202.798 173.111 202.398 167.729C201.998 162.447 201.798 156.069 201.798 148.495C201.798 140.921 201.998 134.542 202.398 129.161C202.798 123.879 203.498 119.593 204.498 116.404C205.498 113.115 206.798 110.823 208.498 109.328C210.198 107.833 212.298 107.136 214.798 107.136C217.298 107.136 219.298 107.734 220.998 109.228C222.698 110.723 223.998 113.016 224.998 116.304C225.998 119.593 226.698 123.779 227.098 129.161C227.498 134.443 227.698 140.921 227.698 148.594C227.698 156.169 227.498 162.547 227.098 167.929C226.698 173.111 225.998 177.396 224.998 180.685Z" fill="#BD7F10"/>
<path d="M270.498 123.081C270.098 120.889 269.498 118.696 268.998 116.603C266.498 107.435 262.598 99.661 257.698 93.3824C252.798 87.2034 246.598 82.4197 239.398 79.3302C232.198 76.2407 223.998 74.7458 214.698 74.8455C205.398 75.0448 197.198 76.7391 190.098 80.0279C182.998 83.3167 177.098 88.1004 172.298 94.379C167.498 100.658 163.898 108.331 161.498 117.301C159.098 126.37 157.798 136.735 157.798 148.495C157.798 160.255 158.998 170.619 161.498 179.689C163.898 188.758 167.598 196.432 172.298 202.611C177.098 208.889 182.998 213.673 190.098 216.962C197.198 220.25 205.398 222.044 214.698 222.144C218.798 222.244 222.798 221.945 226.498 221.347C231.098 220.649 235.398 219.354 239.398 217.659C246.598 214.57 252.698 209.886 257.698 203.607C262.698 197.329 266.498 189.555 268.998 180.386C271.598 171.118 272.898 160.554 272.898 148.495C272.898 139.226 272.098 130.755 270.498 123.081ZM224.998 180.685C223.998 183.974 222.698 186.266 220.998 187.861C219.298 189.356 217.298 190.053 214.798 190.053C212.298 190.053 210.198 189.356 208.498 187.761C206.798 186.266 205.498 183.874 204.498 180.586C203.498 177.297 202.798 173.111 202.398 167.729C201.998 162.447 201.798 156.069 201.798 148.495C201.798 140.921 201.998 134.542 202.398 129.161C202.798 123.879 203.498 119.593 204.498 116.404C205.498 113.115 206.798 110.823 208.498 109.328C210.198 107.833 212.298 107.136 214.798 107.136C217.298 107.136 219.298 107.734 220.998 109.228C222.698 110.723 223.998 113.016 224.998 116.304C225.998 119.593 226.698 123.779 227.098 129.161C227.498 134.443 227.698 140.921 227.698 148.594C227.698 156.169 227.498 162.547 227.098 167.929C226.698 173.111 225.998 177.396 224.998 180.685Z" fill="#BD7F10"/>
<path d="M272.898 148.495C272.898 160.554 271.598 171.118 268.998 180.386C266.498 189.555 262.598 197.329 257.698 203.607C252.798 209.886 246.598 214.57 239.398 217.659C235.398 219.354 231.098 220.649 226.498 221.347L270.498 123.081C272.098 130.755 272.898 139.226 272.898 148.495Z" fill="#BD7F10"/>
<path d="M342.4 160.014L360.4 159.217H373L356.1 160.114L342.4 160.014Z" fill="#BD7F10"/>
<path d="M376.2 77.0967L391.5 83.0764L360.4 159.217L342.4 160.014L376.2 77.0967Z" fill="#BD7F10"/>
<path d="M412.6 190.81V216.821L399.2 222.9V194.597L412.6 190.81Z" fill="#BD7F10"/>
<path d="M399.2 132.109L412.6 133.505V159.317L399.2 160.214V132.109Z" fill="#BD7F10"/>
<path d="M415.7 160.214L427.8 159.317V191.009L415.7 194.696V160.214Z" fill="#BD7F10"/>
<path d="M399.2 160.214L412.6 159.317H427.8L415.7 160.214L399.2 160.214Z" fill="#BD7F10"/>
<path d="M415.7 160.214V194.696L412.6 194.696L399.2 194.597V222.9L356.1 222.203V194.098L296.5 193.5V163.004L332.2 77.7944L376.2 76.9971L342.4 160.014L356.1 160.114V132.209L399.2 132.109V160.214L415.7 160.214Z" fill="#BD7F10"/>
<path d="M376.2 77.0967L342.4 160.014L356.1 160.114V132.209L399.2 132.109V160.214L415.7 160.214V194.696L399.2 194.597V222.9L356.1 222.203V194.098L296.5 193.5V163.004L332.2 77.7944L376.2 77.0967Z" fill="#BD7F10"/>
<path d="M90.1 196.098V196.198L63.5 214.436V196.597L90.1 196.098Z" fill="#BD7F10"/>
<path d="M412.602 194.898V211.242L399.402 194.798L412.602 194.898Z" fill="#BD7F10"/>
<path d="M216.601 179.987C250.456 179.987 277.901 152.635 277.901 118.895C277.901 85.1551 250.456 57.8032 216.601 57.8032C182.746 57.8032 155.301 85.1551 155.301 118.895C155.301 152.635 182.746 179.987 216.601 179.987Z" fill="url(#paint32_radial_42_5508)" fill-opacity="0.2"/>
<path d="M79.8 212.183C113.655 212.183 141.1 184.831 141.1 151.091C141.1 117.35 113.655 89.9985 79.8 89.9985C45.9449 89.9985 18.5 117.35 18.5 151.091C18.5 184.831 45.9449 212.183 79.8 212.183Z" fill="url(#paint33_radial_42_5508)" fill-opacity="0.2"/>
<path d="M370.3 190.749C404.155 190.749 431.6 163.397 431.6 129.657C431.6 95.9168 404.155 68.5649 370.3 68.5649C336.445 68.5649 309 95.9168 309 129.657C309 163.397 336.445 190.749 370.3 190.749Z" fill="url(#paint34_radial_42_5508)" fill-opacity="0.1"/>
</g>
<defs>
<radialGradient id="paint0_radial_42_5508" cx="0" cy="0" r="1" gradientUnits="userSpaceOnUse" gradientTransform="translate(104.704 222.044) scale(78.515 11.5517)">
<stop stop-color="#BD7F10"/>
<stop offset="1" stop-opacity="0"/>
</radialGradient>
<radialGradient id="paint1_radial_42_5508" cx="0" cy="0" r="1" gradientUnits="userSpaceOnUse" gradientTransform="translate(94.8059 224.255) scale(78.515 11.5517)">
<stop stop-color="#BD7F10"/>
<stop offset="1" stop-opacity="0"/>
</radialGradient>
<radialGradient id="paint2_radial_42_5508" cx="0" cy="0" r="1" gradientUnits="userSpaceOnUse" gradientTransform="translate(373.107 223.232) scale(78.515 11.5517)">
<stop stop-color="#BD7F10"/>
<stop offset="1" stop-opacity="0"/>
</radialGradient>
<radialGradient id="paint3_radial_42_5508" cx="0" cy="0" r="1" gradientUnits="userSpaceOnUse" gradientTransform="translate(383.204 224.538) scale(78.515 13.0455)">
<stop stop-color="#BD7F10"/>
<stop offset="1" stop-opacity="0"/>
</radialGradient>
<radialGradient id="paint4_radial_42_5508" cx="0" cy="0" r="1" gradientUnits="userSpaceOnUse" gradientTransform="translate(234.515 221.937) scale(234.545 13.0455)">
<stop stop-color="#BD7F10"/>
<stop offset="1" stop-opacity="0"/>
</radialGradient>
<radialGradient id="paint5_radial_42_5508" cx="0" cy="0" r="1" gradientUnits="userSpaceOnUse" gradientTransform="translate(212.906 221.837) scale(110.021 11.5517)">
<stop stop-color="#BD7F10"/>
<stop offset="1" stop-opacity="0"/>
</radialGradient>
<linearGradient id="paint6_linear_42_5508" x1="101.085" y1="161.587" x2="145.408" y2="161.587" gradientUnits="userSpaceOnUse">
<stop stop-color="#E6E7E8"/>
<stop offset="1" stop-color="#939598"/>
</linearGradient>
<linearGradient id="paint7_linear_42_5508" x1="63.5274" y1="208.362" x2="90.0558" y2="208.362" gradientUnits="userSpaceOnUse">
<stop stop-color="#E6E7E8"/>
<stop offset="1" stop-color="#939598"/>
</linearGradient>
<linearGradient id="paint8_linear_42_5508" x1="63.5304" y1="148.274" x2="90.0622" y2="148.274" gradientUnits="userSpaceOnUse">
<stop stop-color="#D1D3D4"/>
<stop offset="1" stop-color="#BD7F10"/>
</linearGradient>
<linearGradient id="paint9_linear_42_5508" x1="51.2053" y1="161.781" x2="90.0624" y2="161.781" gradientUnits="userSpaceOnUse">
<stop stop-color="#E6E7E8"/>
<stop offset="1" stop-color="#939598"/>
</linearGradient>
<linearGradient id="paint10_linear_42_5508" x1="8.46185" y1="180.776" x2="30.7032" y2="180.776" gradientUnits="userSpaceOnUse">
<stop stop-color="#E6E7E8"/>
<stop offset="1" stop-color="#939598"/>
</linearGradient>
<linearGradient id="paint11_linear_42_5508" x1="8.46185" y1="122.275" x2="66.7539" y2="122.275" gradientUnits="userSpaceOnUse">
<stop stop-color="#BD7F10"/>
<stop offset="1" stop-color="#BD7F10"/>
</linearGradient>
<linearGradient id="paint12_linear_42_5508" x1="30.6982" y1="151.558" x2="145.406" y2="151.558" gradientUnits="userSpaceOnUse">
<stop stop-color="#F1F2F2"/>
<stop offset="1" stop-color="#D1D3D4"/>
</linearGradient>
<linearGradient id="paint13_linear_42_5508" x1="30.5653" y1="151.558" x2="145.538" y2="151.558" gradientUnits="userSpaceOnUse">
<stop offset="0.00526316" stop-color="#F1F2F2"/>
<stop offset="1" stop-color="#E6E7E8"/>
</linearGradient>
<linearGradient id="paint14_linear_42_5508" x1="124.05" y1="178.9" x2="164.524" y2="174.64" gradientUnits="userSpaceOnUse">
<stop stop-color="white"/>
<stop offset="0.0763171" stop-color="#F5F5F5"/>
<stop offset="0.5033" stop-color="#C0C1C3"/>
<stop offset="0.8242" stop-color="#9FA1A4"/>
<stop offset="1" stop-color="#939598"/>
</linearGradient>
<linearGradient id="paint15_linear_42_5508" x1="201.136" y1="148.28" x2="232.712" y2="148.28" gradientUnits="userSpaceOnUse">
<stop stop-color="#D1D3D4"/>
<stop offset="1" stop-color="#BD7F10"/>
</linearGradient>
<linearGradient id="paint16_linear_42_5508" x1="272.642" y1="149.044" x2="283.715" y2="149.044" gradientUnits="userSpaceOnUse">
<stop stop-color="#E6E7E8"/>
<stop offset="1" stop-color="#939598"/>
</linearGradient>
<linearGradient id="paint17_linear_42_5508" x1="271.326" y1="163.127" x2="283.488" y2="163.127" gradientUnits="userSpaceOnUse">
<stop stop-color="#E6E7E8"/>
<stop offset="1" stop-color="#939598"/>
</linearGradient>
<linearGradient id="paint18_linear_42_5508" x1="239.151" y1="148.52" x2="283.715" y2="148.52" gradientUnits="userSpaceOnUse">
<stop stop-color="#A7A9AC"/>
<stop offset="1" stop-color="#A7A9AC"/>
</linearGradient>
<linearGradient id="paint19_linear_42_5508" x1="157.881" y1="148.518" x2="272.894" y2="148.518" gradientUnits="userSpaceOnUse">
<stop stop-color="#F1F2F2"/>
<stop offset="1" stop-color="#D1D3D4"/>
</linearGradient>
<linearGradient id="paint20_linear_42_5508" x1="157.748" y1="148.518" x2="273.027" y2="148.518" gradientUnits="userSpaceOnUse">
<stop offset="0.00526316" stop-color="#F1F2F2"/>
<stop offset="1" stop-color="#E6E7E8"/>
</linearGradient>
<linearGradient id="paint21_linear_42_5508" x1="253.09" y1="174.425" x2="312.455" y2="203.57" gradientUnits="userSpaceOnUse">
<stop stop-color="white"/>
<stop offset="0.2535" stop-color="#DCDCDD"/>
<stop offset="0.5801" stop-color="#B4B6B8"/>
<stop offset="0.8404" stop-color="#9C9EA1"/>
<stop offset="1" stop-color="#939598"/>
</linearGradient>
<linearGradient id="paint22_linear_42_5508" x1="374.227" y1="156.82" x2="347.589" y2="161.399" gradientUnits="userSpaceOnUse">
<stop stop-color="#E6E7E8"/>
<stop offset="1" stop-color="#939598"/>
</linearGradient>
<linearGradient id="paint23_linear_42_5508" x1="395.411" y1="74.1106" x2="334.008" y2="174.443" gradientUnits="userSpaceOnUse">
<stop stop-color="#E6E7E8"/>
<stop offset="0.0347282" stop-color="#DEDFE0"/>
<stop offset="0.1758" stop-color="#C3C4C6"/>
<stop offset="0.3292" stop-color="#AEAFB2"/>
<stop offset="0.4992" stop-color="#9FA0A3"/>
<stop offset="0.6987" stop-color="#96989B"/>
<stop offset="1" stop-color="#939598"/>
</linearGradient>
<linearGradient id="paint24_linear_42_5508" x1="410.314" y1="225.749" x2="401.591" y2="188.196" gradientUnits="userSpaceOnUse">
<stop stop-color="#A7A9AC"/>
<stop offset="1" stop-color="#6D6E71"/>
</linearGradient>
<radialGradient id="paint25_radial_42_5508" cx="0" cy="0" r="1" gradientUnits="userSpaceOnUse" gradientTransform="translate(411.284 130.871) scale(35.438 35.3177)">
<stop stop-color="#E6E7E8"/>
<stop offset="1" stop-color="#939598"/>
</radialGradient>
<radialGradient id="paint26_radial_42_5508" cx="0" cy="0" r="1" gradientUnits="userSpaceOnUse" gradientTransform="translate(423.739 163.877) scale(48.1603 47.9969)">
<stop stop-color="#E6E7E8"/>
<stop offset="1" stop-color="#939598"/>
</radialGradient>
<radialGradient id="paint27_radial_42_5508" cx="0" cy="0" r="1" gradientUnits="userSpaceOnUse" gradientTransform="translate(427.171 158.164) scale(13.4426 13.3969)">
<stop stop-color="#E6E7E8"/>
<stop offset="0.1131" stop-color="#DDDEDF"/>
<stop offset="1" stop-color="#939598"/>
</radialGradient>
<linearGradient id="paint28_linear_42_5508" x1="296.537" y1="149.963" x2="415.745" y2="149.963" gradientUnits="userSpaceOnUse">
<stop stop-color="#F1F2F2"/>
<stop offset="1" stop-color="#D1D3D4"/>
</linearGradient>
<linearGradient id="paint29_linear_42_5508" x1="296.409" y1="149.963" x2="415.87" y2="149.963" gradientUnits="userSpaceOnUse">
<stop offset="0.00526316" stop-color="#F1F2F2"/>
<stop offset="1" stop-color="#E6E7E8"/>
</linearGradient>
<linearGradient id="paint30_linear_42_5508" x1="64.7094" y1="195.161" x2="80.0496" y2="208.077" gradientUnits="userSpaceOnUse">
<stop stop-color="#939598"/>
<stop offset="0.0837509" stop-color="#A6A8AB"/>
<stop offset="0.2472" stop-color="#C6C7C9"/>
<stop offset="0.4171" stop-color="#DFE0E1"/>
<stop offset="0.5939" stop-color="#F1F1F2"/>
<stop offset="0.7818" stop-color="#FCFCFC"/>
<stop offset="1" stop-color="white"/>
</linearGradient>
<linearGradient id="paint31_linear_42_5508" x1="403.802" y1="191.722" x2="415.838" y2="208.97" gradientUnits="userSpaceOnUse">
<stop stop-color="#939598"/>
<stop offset="0.0448571" stop-color="#A9ABAD"/>
<stop offset="0.1133" stop-color="#C4C5C6"/>
<stop offset="0.192" stop-color="#DADADB"/>
<stop offset="0.284" stop-color="#EBEBEB"/>
<stop offset="0.3976" stop-color="#F6F6F7"/>
<stop offset="0.5572" stop-color="#FDFDFD"/>
<stop offset="1" stop-color="white"/>
</linearGradient>
<radialGradient id="paint32_radial_42_5508" cx="0" cy="0" r="1" gradientUnits="userSpaceOnUse" gradientTransform="translate(216.609 118.911) scale(61.3153 61.1073)">
<stop stop-color="#BD7F10"/>
<stop offset="1" stop-color="#4B4C4E" stop-opacity="0"/>
</radialGradient>
<radialGradient id="paint33_radial_42_5508" cx="0" cy="0" r="1" gradientUnits="userSpaceOnUse" gradientTransform="translate(79.8083 151.107) scale(61.3153 61.1073)">
<stop stop-color="#BD7F10"/>
<stop offset="1" stop-color="#4B4C4E" stop-opacity="0"/>
</radialGradient>
<radialGradient id="paint34_radial_42_5508" cx="0" cy="0" r="1" gradientUnits="userSpaceOnUse" gradientTransform="translate(370.31 129.645) scale(61.3153 61.1073)">
<stop stop-color="#BD7F10"/>
<stop offset="1" stop-color="#BD7F10" stop-opacity="0"/>
</radialGradient>
<clipPath id="clip0_42_5508">
<rect width="469" height="235" fill="white"/>
</clipPath>
</defs>
</svg>
