<svg width="22" height="22" viewBox="0 0 22 22" fill="none" xmlns="http://www.w3.org/2000/svg">
<path d="M10.75 0C4.822 0 0 4.822 0 10.75C0 16.678 4.822 21.5 10.75 21.5C16.678 21.5 21.5 16.678 21.5 10.75C21.5 4.822 16.678 0 10.75 0ZM10.75 20C5.649 20 1.5 15.851 1.5 10.75C1.5 5.649 5.649 1.5 10.75 1.5C15.851 1.5 20 5.649 20 10.75C20 15.851 15.851 20 10.75 20ZM14.28 11.22C14.573 11.513 14.573 11.988 14.28 12.281C14.134 12.427 13.942 12.501 13.75 12.501C13.558 12.501 13.366 12.428 13.22 12.281L10.75 9.81104L8.28003 12.281C7.98703 12.574 7.51199 12.574 7.21899 12.281C6.92599 11.988 6.92599 11.513 7.21899 11.22L10.219 8.21997C10.512 7.92697 10.987 7.92697 11.28 8.21997L14.28 11.22Z" fill="#FCFCFD"/>
</svg>
