<svg width="20" height="16" viewBox="0 0 20 16" fill="none" xmlns="http://www.w3.org/2000/svg">
<path d="M15.75 0H3.75C1.332 0 0 1.332 0 3.75V11.75C0 14.168 1.332 15.5 3.75 15.5H15.75C18.168 15.5 19.5 14.168 19.5 11.75V3.75C19.5 1.332 18.168 0 15.75 0ZM18 11.75C18 13.327 17.327 14 15.75 14H3.75C2.173 14 1.5 13.327 1.5 11.75V6.5H18V11.75ZM18 5H1.5V3.75C1.5 2.173 2.173 1.5 3.75 1.5H15.75C17.327 1.5 18 2.173 18 3.75V5ZM4 10.75C4 10.336 4.336 10 4.75 10H7.75C8.164 10 8.5 10.336 8.5 10.75C8.5 11.164 8.164 11.5 7.75 11.5H4.75C4.336 11.5 4 11.164 4 10.75Z" fill="#BD7F10"/>
</svg>
