<svg width="49" height="49" viewBox="0 0 49 49" fill="none" xmlns="http://www.w3.org/2000/svg">
<path d="M22.2004 48.9101C21.8389 48.8077 21.8897 48.5659 22.6238 46.9572C23.102 45.9365 23.8216 45.1397 30.9178 37.9829C35.237 33.6335 38.6991 30.0121 38.6984 29.8394C38.6962 29.1313 36.4295 25.0804 35.6881 24.4784C35.4121 24.2548 34.6576 24.9655 27.0817 32.6246C20.6884 39.0882 18.6833 41.2195 18.2903 41.9634C17.3503 43.7456 17.1879 46.5957 17.9819 47.4393C18.1718 47.6459 18.9126 48.0231 19.6014 48.2801C20.8411 48.7247 21.2893 49.0169 20.2563 48.7096C19.9809 48.6243 19.1719 48.4196 18.4662 48.2666C11.719 46.6659 5.42412 41.4543 2.35805 34.9191C-0.430988 28.9356 -0.762762 22.3221 1.45248 16.2008C3.1225 11.6012 6.13592 7.58417 10.2018 4.54807C11.5227 3.55918 11.6242 3.41419 11.9172 3.2292C12.225 3.06672 12.0533 3.15369 12.3109 3.03837C12.5302 2.94021 12.6556 2.89905 12.7074 2.95068C12.742 3.00238 12.3999 3.5562 11.9203 4.1623C10.0881 6.55185 9.73094 7.74472 9.62482 11.9937C9.56234 13.8763 9.60128 15.2233 9.68727 15.2231C9.77326 15.2228 11.5732 13.4723 13.6986 11.3236L17.5551 7.42462L20.8572 7.41346L24.1765 7.40223L24.1851 9.95823C24.1898 11.3571 24.1086 12.7909 24.0411 13.1711C23.9054 13.7415 23.0487 14.6942 18.3352 19.4942C12.7819 25.1432 11.9254 26.165 11.0036 28.2234C10.0136 30.4546 9.89545 31.1286 9.9064 34.3927C9.91503 36.966 9.9686 37.553 10.2464 38.3293C10.4372 38.8121 10.645 39.2259 10.7137 39.2259C10.7654 39.2255 10.8672 38.8281 10.9 38.3617C10.9499 37.8433 11.2564 36.9442 11.6322 36.1483C12.247 34.8684 12.6582 34.4181 20.8855 26.0656C28.0328 18.805 29.5922 17.1245 30.105 16.1729C31.3187 13.9754 31.7581 11.6597 31.4062 9.29477C31.019 6.65367 30.1359 4.89508 28.2033 2.98457C26.8227 1.59033 25.7026 0.920566 23.8087 0.305239L23.034 0.0660713L24.8396 0.00814663C27.3159 -0.0693197 29.9661 0.405285 32.8416 1.44906C42.5361 4.97399 48.9651 14.1747 48.9999 24.5543C49.0117 28.0774 48.062 32.053 46.4562 35.3223C43.9963 40.2703 39.9679 44.2389 34.954 46.639C33.0652 47.5436 30.626 48.3981 29.3882 48.5579L28.5286 48.6644L29.7824 48.1591C33.3549 46.7137 36.1155 44.2344 37.6871 41.086C38.8147 38.8198 39.1028 37.5581 39.1964 34.6734C39.2424 33.0326 39.2044 31.9619 39.1009 31.8586C38.9802 31.7382 36.4087 34.2513 31.5752 39.155C24.4621 46.3638 23.554 47.4031 23.2316 48.6823C23.1467 49.0105 22.8717 49.0807 22.2004 48.9101ZM16.3076 45.6488C16.1665 44.5956 16.5555 42.6428 17.1534 41.4318C17.5292 40.688 19.3457 38.7303 25.9961 32.0068C30.6068 27.328 34.3774 23.4121 34.3771 23.3085C34.3752 22.8076 31.6005 21.0554 29.7752 20.388L28.6215 19.9774L21.1998 27.4808C17.1032 31.605 13.5384 35.3304 13.2647 35.7458C12.409 37.0266 12.0349 38.2886 12.0229 39.8257C12.0133 42.1055 12.983 44.0712 14.9144 45.6189C16.2596 46.7025 16.4488 46.7019 16.3076 45.6488Z" fill="#BD7F10"/>
</svg>
