<svg width="52" height="52" viewBox="0 0 52 52" fill="none" xmlns="http://www.w3.org/2000/svg">
<path d="M2 26C2 12.7452 12.7452 2 26 2C39.2548 2 50 12.7452 50 26C50 39.2548 39.2548 50 26 50C12.7452 50 2 39.2548 2 26Z" fill="#353945"/>
<path d="M33.75 19V29C33.75 29.414 33.414 29.75 33 29.75C32.586 29.75 32.25 29.414 32.25 29V20.811L20.5301 32.531C20.3841 32.677 20.192 32.751 20 32.751C19.808 32.751 19.616 32.678 19.47 32.531C19.177 32.238 19.177 31.763 19.47 31.47L31.19 19.75H23C22.586 19.75 22.25 19.414 22.25 19C22.25 18.586 22.586 18.25 23 18.25H33C33.098 18.25 33.1951 18.2701 33.2871 18.3081C33.4701 18.3841 33.6161 18.5301 33.6931 18.7141C33.7301 18.8051 33.75 18.902 33.75 19Z" fill="#FCFCFD"/>
</svg>
