<svg width="156" height="52" viewBox="0 0 156 52" fill="none" xmlns="http://www.w3.org/2000/svg">
<path d="M68.7034 31V18.436H74.6434C75.2314 18.436 75.7594 18.538 76.2274 18.742C76.6954 18.934 77.0914 19.204 77.4154 19.552C77.7514 19.9 78.0094 20.326 78.1894 20.83C78.3694 21.322 78.4594 21.862 78.4594 22.45C78.4594 23.05 78.3694 23.596 78.1894 24.088C78.0094 24.58 77.7514 25 77.4154 25.348C77.0914 25.696 76.6954 25.972 76.2274 26.176C75.7594 26.368 75.2314 26.464 74.6434 26.464H71.4394V31H68.7034ZM71.4394 24.088H74.3194C74.7274 24.088 75.0454 23.986 75.2734 23.782C75.5134 23.566 75.6334 23.254 75.6334 22.846V22.054C75.6334 21.646 75.5134 21.34 75.2734 21.136C75.0454 20.92 74.7274 20.812 74.3194 20.812H71.4394V24.088ZM80.0299 31V28.822H81.6499V20.614H80.0299V18.436H86.0059V20.614H84.3859V28.822H86.0059V31H80.0299ZM93.4531 20.866V31H90.7171V20.866H87.3151V18.436H96.8551V20.866H93.4531ZM98.1705 31V28.822H99.7905V20.614H98.1705V18.436H104.147V20.614H102.527V28.822H104.147V31H98.1705ZM110.8 25.528L109.162 27.508V31H106.426V18.436H109.162V24.412H109.27L111.052 21.982L113.878 18.436H116.974L112.744 23.602L117.352 31H114.13L110.8 25.528ZM118.959 31V18.436H121.695V28.57H126.483V31H118.959ZM128.018 31V28.822H129.638V20.614H128.018V18.436H133.994V20.614H132.374V28.822H133.994V31H128.018ZM140.108 25.06L138.902 22.54H138.848V31H136.274V18.436H139.262L142.7 24.376L143.906 26.896H143.96V18.436H146.534V31H143.546L140.108 25.06ZM148.813 31V28.822H150.433V20.614H148.813V18.436H154.789V20.614H153.169V28.822H154.789V31H148.813Z" fill="#BD7F10"/>
<path d="M22.2004 51.9101C21.8389 51.8077 21.8897 51.5659 22.6238 49.9572C23.102 48.9365 23.8216 48.1397 30.9178 40.9829C35.237 36.6335 38.6991 33.0121 38.6984 32.8394C38.6962 32.1313 36.4295 28.0804 35.6881 27.4784C35.4121 27.2548 34.6576 27.9655 27.0817 35.6246C20.6884 42.0882 18.6833 44.2195 18.2903 44.9634C17.3503 46.7456 17.1879 49.5957 17.9819 50.4393C18.1718 50.6459 18.9126 51.0231 19.6014 51.2801C20.8411 51.7247 21.2893 52.0169 20.2563 51.7096C19.9809 51.6243 19.1719 51.4196 18.4662 51.2666C11.719 49.6659 5.42412 44.4543 2.35805 37.9191C-0.430988 31.9356 -0.762762 25.3221 1.45248 19.2008C3.1225 14.6012 6.13592 10.5842 10.2018 7.54807C11.5227 6.55918 11.6242 6.41419 11.9172 6.2292C12.225 6.06672 12.0533 6.15369 12.3109 6.03837C12.5302 5.94021 12.6556 5.89905 12.7074 5.95068C12.742 6.00238 12.3999 6.5562 11.9203 7.1623C10.0881 9.55185 9.73094 10.7447 9.62482 14.9937C9.56234 16.8763 9.60128 18.2233 9.68727 18.2231C9.77326 18.2228 11.5732 16.4723 13.6986 14.3236L17.5551 10.4246L20.8572 10.4135L24.1765 10.4022L24.1851 12.9582C24.1898 14.3571 24.1086 15.7909 24.0411 16.1711C23.9054 16.7415 23.0487 17.6942 18.3352 22.4942C12.7819 28.1432 11.9254 29.165 11.0036 31.2234C10.0136 33.4546 9.89545 34.1286 9.9064 37.3927C9.91503 39.966 9.9686 40.553 10.2464 41.3293C10.4372 41.8121 10.645 42.2259 10.7137 42.2259C10.7654 42.2255 10.8672 41.8281 10.9 41.3617C10.9499 40.8433 11.2564 39.9442 11.6322 39.1483C12.247 37.8684 12.6582 37.4181 20.8855 29.0656C28.0328 21.805 29.5922 20.1245 30.105 19.1729C31.3187 16.9754 31.7581 14.6597 31.4062 12.2948C31.019 9.65367 30.1359 7.89508 28.2033 5.98457C26.8227 4.59033 25.7026 3.92057 23.8087 3.30524L23.034 3.06607L24.8396 3.00815C27.3159 2.93068 29.9661 3.40529 32.8416 4.44906C42.5361 7.97399 48.9651 17.1747 48.9999 27.5543C49.0117 31.0774 48.062 35.053 46.4562 38.3223C43.9963 43.2703 39.9679 47.2389 34.954 49.639C33.0652 50.5436 30.626 51.3981 29.3882 51.5579L28.5286 51.6644L29.7824 51.1591C33.3549 49.7137 36.1155 47.2344 37.6871 44.086C38.8147 41.8198 39.1028 40.5581 39.1964 37.6734C39.2424 36.0326 39.2044 34.9619 39.1009 34.8586C38.9802 34.7382 36.4087 37.2513 31.5752 42.155C24.4621 49.3638 23.554 50.4031 23.2316 51.6823C23.1467 52.0105 22.8717 52.0807 22.2004 51.9101ZM16.3076 48.6488C16.1665 47.5956 16.5555 45.6428 17.1534 44.4318C17.5292 43.688 19.3457 41.7303 25.9961 35.0068C30.6068 30.328 34.3774 26.4121 34.3771 26.3085C34.3752 25.8076 31.6005 24.0554 29.7752 23.388L28.6215 22.9774L21.1998 30.4808C17.1032 34.605 13.5384 38.3304 13.2647 38.7458C12.409 40.0266 12.0349 41.2886 12.0229 42.8257C12.0133 45.1055 12.983 47.0712 14.9144 48.6189C16.2596 49.7025 16.4488 49.7019 16.3076 48.6488Z" fill="#BD7F10"/>
</svg>
